<?xml version="1.0" encoding="utf-8"?>
<!-- Generator: Adobe Illustrator 28.1.0, SVG Export Plug-In . SVG Version: 6.00 Build 0)  -->
<svg version="1.1" id="Layer_1" xmlns="http://www.w3.org/2000/svg" xmlns:xlink="http://www.w3.org/1999/xlink" x="0px" y="0px"
	 viewBox="0 0 1080 1080" style="enable-background:new 0 0 1080 1080;" xml:space="preserve">
<style type="text/css">
	.st0{fill:#3DC1C6;}
	.st1{fill:#7074B6;}
	.st2{fill:url(#SVGID_1_);}
	.st3{fill:url(#SVGID_00000116925228780367984220000012233514188623106987_);}
	.st4{fill:url(#SVGID_00000025415151059871904700000016700384589130537365_);}
</style>
<path class="st0" d="M525.73,161.08h-267.2c-56.28,0-101.91,45.63-101.91,101.91v469.32c0,17.12,13.88,31,31,31
	c8.56,0,16.31-3.47,21.92-9.08c5.61-5.61,9.08-13.36,9.08-21.92V262.99c0-22.04,17.87-39.91,39.91-39.91h11.39l378.31,283.58
	l19.54,14.65l16.85,12.63l6.1,3c1.15,0.05,2.24,0.07,3.27,0.07c17.04,0,18.29-6.4,26.77-11.75c0.04-0.01,1.76-2.1,3.28-3.95
	c0.93-1.13,1.78-2.17,2.15-2.62c0.05-0.06,0.09-0.11,0.12-0.15c0.04-0.05,0.06-0.08,0.06-0.08c21.09-27.66,33.62-62.2,33.62-99.66
	v-23.46C759.99,265.96,655.11,161.08,525.73,161.08z M374.1,223.08h151.63c46.01,0,89.27,17.92,121.8,50.46
	c32.54,32.53,50.46,75.79,50.46,121.8v23.46c0,15.05-3.26,29.36-9.12,42.25L374.1,223.08z"/>
<g>
	<path class="st0" d="M214.22,811.4c16.06,0,22.57,7.46,22.57,21.63v7.77c0,14.17-6.51,21.63-22.57,21.63h-43.47v20.16
		c0,1.57-0.73,2.31-2.31,2.31H157.1c-1.58,0-2.42-0.74-2.42-2.31v-68.04c0-2.1,1.05-3.15,3.15-3.15H214.22z M170.75,848.57h40.21
		c7.14,0,9.76-3.04,9.76-9.34v-3.99c0-6.3-2.62-9.34-9.76-9.34h-38.85c-0.94,0-1.36,0.32-1.36,1.26V848.57z"/>
	<path class="st0" d="M314.28,827.26c18.9,0,24.99,6.09,24.99,21.31v27.93c0,6.82-1.68,8.4-7.77,8.4h-49.98
		c-12.39,0-16.17-4.51-16.17-14.91v-5.04c0-8.82,3.78-13.75,16.17-13.75h42.73v-1.99c0-6.72-2.31-9.34-11.44-9.34h-43.89
		c-1.26,0-1.89-0.53-1.89-1.89v-8.82c0-1.26,0.63-1.89,1.89-1.89H314.28z M324.26,869.78v-9.24h-38.43c-4.3,0-5.88,1.79-5.88,5.15
		v2.2c0,3.78,1.57,5.46,5.88,5.46h35.38C323.42,873.35,324.26,872.41,324.26,869.78z"/>
	<path class="st0" d="M425.37,827.26c1.26,0,1.89,0.63,1.89,1.89v8.82c0,1.36-0.63,1.89-1.89,1.89h-27.93
		c-9.03,0-11.44,2.73-11.44,11.55v31.18c0,1.57-0.73,2.31-2.31,2.31H373.4c-1.58,0-2.42-0.74-2.42-2.31v-34.02
		c0-15.22,6.09-21.31,24.99-21.31H425.37z"/>
	<path class="st1" d="M475.46,811.4c6.72,0,8.19,0.84,12.18,6.19l39.06,51.24c0.31,0.53,0.73,0.74,1.36,0.74H529
		c0.52,0,0.84-0.32,0.84-1.05v-54.81c0-1.57,0.73-2.31,2.31-2.31h11.02c1.57,0,2.31,0.74,2.31,2.31v60.27
		c0,8.5-3.04,10.92-9.45,10.92h-9.03c-6.4,0-7.98-0.63-12.18-6.19l-39.16-51.24c-0.42-0.53-0.74-0.74-1.37-0.74h-0.94
		c-0.63,0-0.84,0.32-0.84,1.05v54.81c0,1.57-0.73,2.31-2.31,2.31h-11.02c-1.58,0-2.42-0.74-2.42-2.31v-60.27
		c0-8.5,3.04-10.92,9.45-10.92H475.46z"/>
	<path class="st1" d="M633.69,827.26c18.9,0,24.99,6.09,24.99,21.31v15.12c0,15.22-6.09,21.21-24.99,21.21h-29.71
		c-18.9,0-24.99-5.98-24.99-21.21v-15.12c0-15.22,6.09-21.31,24.99-21.31H633.69z M594,861.07c0,8.82,2.42,11.55,11.45,11.55h26.77
		c9.13,0,11.55-2.73,11.55-11.55v-9.97c0-8.82-2.41-11.44-11.55-11.44h-26.77c-9.03,0-11.45,2.62-11.45,11.44V861.07z"/>
	<path class="st1" d="M746.67,827.26c18.9,0,24.99,6.09,24.99,21.31v34.02c0,1.57-0.74,2.31-2.31,2.31h-10.29
		c-1.58,0-2.31-0.74-2.31-2.31v-30.45c0-8.82-1.79-11.55-10.81-11.55h-27.93c-9.03,0-11.44,2.73-11.44,11.55v30.45
		c0,1.57-0.74,2.31-2.31,2.31h-10.29c-1.58,0-2.42-0.74-2.42-2.31v-34.02c0-15.22,6.09-21.31,24.99-21.31H746.67z"/>
	<path class="st1" d="M858.92,827.26c14.38,0,18.16,4.51,18.16,17.22v9.97c0,4.52-1.89,5.99-5.98,5.99h-53.02v2.52
		c0,6.62,2.41,9.34,11.55,9.34h43.78c1.26,0,1.89,0.63,1.89,1.89v8.82c0,1.26-0.63,1.89-1.89,1.89h-45.25
		c-18.9,0-24.99-5.98-24.99-21.21v-15.12c0-15.22,6.09-21.31,24.99-21.31H858.92z M818.07,851.09h42.52c1.26,0,1.79-0.42,1.79-1.79
		v-4.41c0-4.31-1.58-5.99-6.41-5.99h-26.35c-9.13,0-11.55,2.62-11.55,9.34V851.09z"/>
</g>
<path class="st1" d="M886.91,169.36c-5.68-5.68-13.6-9.14-22.31-8.93c-16.65,0.39-29.76,14.45-29.76,31.11v470.59
	c0,22.19-17.99,40.18-40.18,40.18h-4.69L414,423.1l-77.68-57.69c-2.61-1.94-5.78-2.99-9.03-2.99h0c-19.05,0-34.49,15.44-34.49,34.49
	v266.02c0,53.01,41.85,97.52,94.13,100.25c1.65,0.09,3.31,0.13,4.98,0.13h0.79c2.18-0.01,4.35-0.1,6.49-0.26
	c24.53-1.76,46.59-12.43,62.96-28.8c17.96-17.95,29.06-42.75,29.06-70.14v-34.97l94.02-0.61l1.36,1.02l97.16,72.76h-0.09
	l61.69,46.24c12.78,9.58,28.32,14.76,44.3,14.76h5.01c55.88,0,101.18-45.3,101.18-101.18V190.92
	C895.84,182.5,892.43,174.88,886.91,169.36z M458.27,567.1c-17.16,0-31.06,13.9-31.06,31.06v65.95c0,19.41-15.79,35.2-35.21,35.2
	c-18.19,0-33.2-13.86-35.02-31.57h0.01V457.6l146.22,109.5H458.27z"/>
<path class="st1" d="M386.93,763.18c-52.43-2.59-94.13-45.91-94.13-98.97v-1.28C292.8,715.94,334.65,760.45,386.93,763.18z"/>
<path class="st1" d="M399.19,763.05v0.26h-6.49C394.88,763.3,397.05,763.21,399.19,763.05z"/>
<linearGradient id="SVGID_1_" gradientUnits="userSpaceOnUse" x1="452.8726" y1="598.1176" x2="585.2277" y2="598.1176">
	<stop  offset="0" style="stop-color:#7074B6;stop-opacity:0"/>
	<stop  offset="1" style="stop-color:#201D40"/>
</linearGradient>
<polygon class="st2" points="503.21,567.1 585.23,628.53 491.21,629.14 452.87,567.1 "/>
<linearGradient id="SVGID_00000136378265461144404610000017027995270020442514_" gradientUnits="userSpaceOnUse" x1="363.8357" y1="285.0179" x2="360.7949" y2="176.4208">
	<stop  offset="0" style="stop-color:#3DC1C6"/>
	<stop  offset="1" style="stop-color:#00474B"/>
</linearGradient>
<polygon style="fill:url(#SVGID_00000136378265461144404610000017027995270020442514_);" points="374.1,223.08 269.92,223.08 
	352.54,285.01 456.02,285.01 "/>
<linearGradient id="SVGID_00000133492196268138903590000004709307799760893107_" gradientUnits="userSpaceOnUse" x1="325.6689" y1="490.9194" x2="318.1775" y2="384.4335">
	<stop  offset="0" style="stop-color:#7074B6;stop-opacity:0"/>
	<stop  offset="1" style="stop-color:#201D40"/>
</linearGradient>
<path style="fill:url(#SVGID_00000133492196268138903590000004709307799760893107_);" d="M356.95,457.55
	c0.03,0.03,0.03,44.14,0.03,44.14c0,0.09-0.07,0.16-0.16,0.16h-63.85c-0.09,0-0.17-0.08-0.16-0.17l0.22-94.71"/>
</svg>
